<?xml version="1.0" standalone="no"?>
<!DOCTYPE svg PUBLIC "-//W3C//DTD SVG 20010904//EN"
 "http://www.w3.org/TR/2001/REC-SVG-20010904/DTD/svg10.dtd">
<svg version="1.0" xmlns="http://www.w3.org/2000/svg"
 width="330.000000pt" height="150.000000pt" viewBox="0 0 330.000000 150.000000" 
 preserveAspectRatio="xMidYMid meet" >

<g transform="translate(0.000000,150.000000) scale(0.100000,-0.100000)"
fill="#000000" stroke="none">
<path d="M240 1125 l0 -95 435 0 435 0 0 95 0 95 -435 0 -435 0 0 -95z m850 0
l0 -75 -412 2 -413 3 -3 59 c-2 32 -1 65 2 72 4 12 79 14 416 14 l410 0 0 -75z" fill = "#fff"/>
<path d="M1762 1023 c223 -2 592 -2 820 0 227 1 44 2 -407 2 -451 0 -637 -1
-413 -2z" fill = "#fff"/>
<path d="M1390 881 c0 -16 -7 -34 -15 -41 -8 -7 -15 -18 -15 -25 0 -7 7 -18
15 -25 8 -7 16 -29 17 -49 l1 -36 4 33 c6 44 27 41 76 -10 27 -30 41 -39 45
-29 2 8 -2 18 -10 22 -9 5 -23 20 -33 35 -16 25 -16 26 4 41 15 10 21 25 21
49 0 30 -4 37 -35 50 -55 23 -75 19 -75 -15z m74 -7 c21 -8 21 -53 0 -61 -17
-6 -64 33 -64 54 0 13 36 18 64 7z m-44 -59 c11 -13 8 -15 -14 -15 -16 0 -26
5 -26 15 0 8 6 15 14 15 7 0 19 -7 26 -15z" fill = "#fff"/>
<path d="M1730 810 c0 -60 4 -100 10 -100 6 0 10 24 10 53 0 57 12 77 45 77
33 0 45 -20 45 -77 0 -29 5 -53 10 -53 6 0 10 27 10 60 0 47 -4 64 -20 80 -24
24 -47 25 -72 3 -17 -15 -18 -14 -18 20 0 21 -4 37 -10 37 -6 0 -10 -40 -10
-100z" fill = "#fff"/>
<path d="M2350 890 c0 -11 -7 -20 -15 -20 -8 0 -15 -7 -15 -15 0 -8 7 -15 15
-15 11 0 15 -12 15 -49 0 -40 4 -53 22 -66 16 -11 24 -12 27 -4 2 7 -4 16 -13
21 -22 12 -23 98 -1 98 8 0 15 7 15 15 0 8 -7 15 -15 15 -8 0 -15 9 -15 20 0
11 -4 20 -10 20 -5 0 -10 -9 -10 -20z" fill = "#fff"/>
<path d="M2470 890 c0 -11 -7 -20 -15 -20 -8 0 -15 -7 -15 -15 0 -8 7 -15 15
-15 11 0 15 -12 15 -49 0 -40 4 -53 22 -66 16 -11 24 -12 27 -4 2 7 -4 16 -13
21 -22 12 -23 98 -1 98 8 0 15 7 15 15 0 8 -7 15 -15 15 -8 0 -15 9 -15 20 0
11 -4 20 -10 20 -5 0 -10 -9 -10 -20z" fill = "#fff"/>
<path d="M240 785 l0 -95 435 0 435 0 0 95 0 95 -435 0 -435 0 0 -95z m850 0
l0 -75 -412 2 -413 3 -3 59 c-2 32 -1 65 2 72 4 12 79 14 416 14 l410 0 0 -75z"  fill = "#fff"/>
<path d="M1584 860 c-26 -10 -40 -40 -19 -40 8 0 15 5 15 10 0 14 54 12 68 -2
21 -21 13 -29 -22 -23 -69 13 -105 -45 -51 -81 22 -14 30 -15 53 -5 18 9 28 9
30 2 8 -24 22 -9 22 23 0 19 5 36 12 38 13 5 7 13 -39 64 -23 25 -35 28 -69
14z m69 -87 c13 -12 -15 -33 -44 -33 -29 0 -44 13 -34 30 7 11 68 14 78 3z" fill = "#fff"/>
<path d="M1910 790 c0 -94 18 -108 22 -17 3 56 5 62 26 65 38 6 52 -15 52 -74
0 -75 18 -68 22 9 3 57 5 62 27 65 34 5 51 -22 51 -80 0 -26 5 -48 10 -48 13
0 13 65 -1 112 -11 42 -47 60 -74 38 -12 -10 -21 -10 -44 0 -22 9 -34 9 -50 0
-14 -7 -21 -7 -21 0 0 5 -4 10 -10 10 -6 0 -10 -33 -10 -80z" fill = "#fff"/>
<path d="M2196 849 c-14 -11 -26 -27 -26 -35 0 -8 -4 -14 -10 -14 -5 0 -10 -7
-10 -15 0 -8 5 -15 10 -15 6 0 10 -7 10 -15 0 -27 47 -49 82 -39 49 14 45 30
-8 30 -29 -1 -49 4 -51 12 -3 8 7 12 30 12 59 0 87 48 49 83 -25 22 -44 21
-76 -4z m74 -29 c0 -17 -7 -20 -40 -20 -22 0 -40 4 -40 8 0 17 25 32 52 32 21
0 28 -5 28 -20z" fill = "#fff"/>
<path d="M2590 863 c-52 -20 -69 -93 -30 -128 49 -44 130 -10 130 55 0 49 -56
90 -100 73z m61 -33 c42 -23 13 -90 -40 -90 -34 0 -51 17 -51 50 0 46 44 65
91 40z" fill = "#fff"/>
<path d="M2722 799 c4 -80 23 -105 68 -94 14 3 33 6 43 6 15 0 17 11 17 80 0
46 -4 79 -10 79 -6 0 -10 -26 -10 -58 0 -62 -11 -82 -45 -82 -34 0 -45 20 -45
82 0 36 -4 58 -11 58 -8 0 -10 -23 -7 -71z" fill = "#fff"/>
<path d="M2900 790 c0 -47 4 -80 10 -80 6 0 10 24 10 53 0 55 12 77 42 77 10
0 18 7 18 15 0 18 -14 19 -41 5 -13 -7 -19 -7 -19 0 0 5 -4 10 -10 10 -6 0
-10 -33 -10 -80z" fill = "#fff"/>
<path d="M1762 543 c223 -2 592 -2 820 0 227 1 44 2 -407 2 -451 0 -637 -1
-413 -2z" fill = "#fff"/>
<path d="M240 445 l0 -95 435 0 435 0 0 95 0 95 -435 0 -435 0 0 -95z m850 0
l0 -75 -412 2 -413 3 -3 59 c-2 32 -1 65 2 72 4 12 79 14 416 14 l410 0 0 -75z" fill = "#fff"/>
</g>
</svg>
