<?xml version="1.0" standalone="no"?>
<!DOCTYPE svg PUBLIC "-//W3C//DTD SVG 20010904//EN"
 "http://www.w3.org/TR/2001/REC-SVG-20010904/DTD/svg10.dtd">
<svg   version="1.0" xmlns="http://www.w3.org/2000/svg"
 width="330.000000pt" height="150.000000pt" viewBox="0 0 330.000000 150.000000" fill = "#fff"
 preserveAspectRatio="xMidYMid meet">

<g transform="translate(0.000000,150.000000) scale(0.100000,-0.100000)"
fill="#000000" stroke="none">
<path d="M240 933 c0 -167 0 -169 32 -247 l33 -79 3 226 c1 125 3 227 5 228 1
0 56 9 122 19 l120 18 -157 1 -158 1 0 -167z" fill = "#fff"/>
<path d="M1400 950 l0 -120 25 0 c22 0 25 4 25 35 0 30 3 35 23 35 27 0 57
-28 57 -53 0 -11 8 -17 21 -17 19 0 21 4 15 38 -8 44 -8 53 0 113 5 42 3 48
-21 68 -21 16 -42 21 -86 21 l-59 0 0 -120z m112 63 c10 -9 18 -21 18 -26 0
-20 -33 -47 -57 -47 -21 0 -23 4 -23 45 0 40 3 45 22 45 12 0 30 -7 40 -17z" fill = "#fff"/>
<path d="M1725 982 c-73 -167 -69 -152 -40 -152 18 0 28 7 35 25 8 20 16 25
45 25 28 0 38 -5 47 -25 7 -16 19 -25 35 -25 12 0 23 2 23 4 0 5 -99 228 -103
232 -2 2 -21 -35 -42 -84z m55 -48 c0 -8 -7 -14 -15 -14 -17 0 -18 2 -9 24 7
18 24 12 24 -10z" fill = "#fff"/>
<path d="M1960 950 l0 -120 25 0 c23 0 25 3 25 50 l0 50 35 0 35 0 0 -50 c0
-47 2 -50 25 -50 l25 0 0 120 0 120 -25 0 c-23 0 -25 -4 -25 -45 0 -45 0 -45
-35 -45 -35 0 -35 0 -35 45 0 41 -2 45 -25 45 l-25 0 0 -120z" fill = "#fff"/>
<path d="M2399 1005 c-19 -36 -37 -65 -41 -65 -4 0 -21 27 -39 60 -18 34 -35
57 -39 53 -4 -4 -15 -48 -24 -98 -10 -49 -19 -98 -22 -107 -4 -14 1 -18 20
-18 21 0 26 6 31 38 12 68 15 69 41 20 13 -27 28 -48 32 -48 4 0 19 21 32 48
l24 47 11 -50 c9 -40 16 -51 33 -53 14 -2 22 2 22 11 0 15 -40 220 -44 224 -1
2 -18 -27 -37 -62z" fill = "#fff"/>
<path d="M2590 950 l0 -120 70 0 c68 0 70 1 70 25 0 23 -3 25 -50 25 -49 0
-50 1 -50 30 0 29 1 30 50 30 47 0 50 2 50 25 0 23 -3 25 -51 25 -43 0 -50 3
-47 18 2 13 15 18 51 20 39 3 47 6 47 23 0 17 -7 19 -70 19 l-70 0 0 -120z" fill = "#fff"/>
<path d="M2830 1050 c0 -15 7 -20 25 -20 l25 0 0 -100 c0 -100 0 -100 25 -100
24 0 24 1 27 98 l3 97 28 3 c19 2 27 9 27 23 0 17 -8 19 -80 19 -73 0 -80 -2
-80 -20z" fill = "#fff"/>
<path d="M1018 740 l-3 -235 -105 -16 -105 -17 138 -1 137 -1 0 218 0 218 -29
34 -30 35 -3 -235z" fill = "#fff"/>
<path d="M480 810 l0 -140 30 0 c28 0 30 2 30 40 0 35 3 40 23 40 34 0 67 -28
67 -56 0 -20 5 -24 31 -24 29 0 30 1 24 33 -4 17 -13 42 -21 54 -11 18 -11 23
0 32 39 33 20 118 -33 145 -17 9 -55 16 -91 16 l-60 0 0 -140z m131 71 c20
-16 22 -23 14 -47 -9 -24 -17 -30 -48 -32 l-37 -3 0 50 c0 47 2 51 24 51 13 0
34 -9 47 -19z" fill = "#fff"/>
<path d="M700 920 c0 -28 3 -30 35 -30 l35 0 0 -110 0 -110 25 0 25 0 0 109 0
110 33 3 c27 2 33 8 35 31 l3 27 -95 0 -96 0 0 -30z" fill = "#fff"/>
<path d="M1644 720 c-11 -4 -33 -22 -47 -40 -47 -56 -30 -152 33 -185 87 -45
180 13 180 113 0 81 -91 142 -166 112z m90 -61 c30 -24 35 -72 10 -107 -11
-16 -25 -22 -54 -22 -46 0 -70 26 -70 76 0 35 37 74 70 74 10 0 29 -9 44 -21z" fill = "#fff"/>
<path d="M1400 700 c0 -15 7 -20 25 -20 l25 0 0 -100 c0 -100 0 -100 25 -100
24 0 24 1 27 98 l3 97 28 3 c19 2 27 9 27 23 0 17 -8 19 -80 19 -73 0 -80 -2
-80 -20z" fill = "#fff"/>
<path d="M1850 625 c0 -88 2 -98 25 -120 24 -25 65 -32 100 -19 30 12 45 60
45 149 0 84 0 85 -25 85 -25 0 -25 -1 -25 -90 0 -74 -3 -91 -17 -99 -11 -6
-24 -6 -35 0 -15 8 -18 24 -18 99 0 89 0 90 -25 90 -25 0 -25 0 -25 -95z" fill = "#fff"/>
<path d="M2070 600 c0 -113 1 -120 20 -120 16 0 20 7 20 35 0 29 4 35 21 35
34 0 59 -19 59 -45 0 -20 5 -25 25 -25 20 0 25 5 25 27 0 14 -7 35 -17 45 -15
17 -15 19 0 36 25 28 21 78 -8 107 -20 21 -34 25 -85 25 l-60 0 0 -120z m108
68 c7 -7 12 -21 12 -33 0 -29 -19 -45 -52 -45 -27 0 -28 2 -28 45 0 43 1 45
28 45 15 0 33 -5 40 -12z" fill = "#fff"/>
</g>
</svg>
